<svg width="6" height="4" viewBox="0 0 6 4" fill="none" xmlns="http://www.w3.org/2000/svg">
<path d="M2.92558 2.32311C2.91008 2.32277 2.89832 2.32934 2.88918 2.33959C2.87089 2.49983 2.79529 2.66166 2.49833 2.66166C2.20567 2.66166 2.11966 2.49268 2.09647 2.33915C2.08738 2.32916 2.07574 2.32278 2.06047 2.32311C1.98181 2.32483 1.9789 2.19187 2.05756 2.19015C2.09831 2.19015 2.14532 2.08789 2.23894 2.05071L2.19577 2.21601L2.18371 2.2239H2.80234L2.79028 2.21601L2.74711 2.05071C2.84073 2.08789 2.88774 2.19015 2.92848 2.19015C3.00714 2.19187 3.00424 2.32483 2.92558 2.32311V2.32311Z" fill="#2B3B47"/>
<path d="M2.89471 2.2239C2.89471 2.34756 2.71425 2.44781 2.49165 2.44781C2.26905 2.44781 2.08859 2.34756 2.08859 2.2239C2.08859 2.10025 2.26905 2 2.49165 2C2.71425 2 2.89471 2.10025 2.89471 2.2239Z" fill="#597B91"/>
<path d="M2.84539 2.25297C2.84539 2.35215 2.68701 2.43255 2.49164 2.43255C2.29626 2.43255 2.13788 2.35215 2.13788 2.25297C2.13788 2.15379 2.29626 2.07339 2.49163 2.07339C2.68701 2.07339 2.84539 2.15379 2.84539 2.25297V2.25297Z" fill="#F9E7C0"/>
<path d="M2.50709 2.06254C2.52212 2.01713 2.49234 2.02161 2.46764 2.06978C2.46733 2.06974 2.46701 2.0697 2.46669 2.06966C2.4807 2.02449 2.4479 2.03231 2.42304 2.08631C2.43797 2.04516 2.41268 2.04625 2.38719 2.07735C2.39259 2.04539 2.36443 2.0554 2.34197 2.10251C2.33167 2.10071 2.32735 2.10682 2.33354 2.11997C2.3318 2.12061 2.33008 2.1213 2.32838 2.12202C2.29578 2.09585 2.27451 2.1035 2.30011 2.13782L2.29964 2.13815C2.26136 2.09969 2.23113 2.10301 2.25577 2.13865C2.25532 2.13878 2.25487 2.13893 2.2544 2.1391C2.21817 2.10454 2.19059 2.10815 2.213 2.14161C2.20684 2.14206 2.19954 2.14312 2.1909 2.14496C2.12737 2.15848 2.15066 2.18607 2.21358 2.17529C2.18461 2.21336 2.21423 2.21879 2.25324 2.18126C2.25353 2.18141 2.25381 2.18155 2.2541 2.18168C2.22617 2.21986 2.25973 2.22312 2.30079 2.18013C2.2733 2.21419 2.29757 2.22138 2.33179 2.20024C2.31458 2.23187 2.35336 2.22798 2.39506 2.1774C2.40705 2.17725 2.42221 2.17501 2.43964 2.16965C2.43964 2.16965 2.44372 2.16218 2.4413 2.15584C2.46172 2.15649 2.46397 2.14271 2.43308 2.12325C2.48466 2.15036 2.51508 2.13742 2.4791 2.11091C2.47947 2.11063 2.47986 2.11034 2.48024 2.11003C2.52574 2.13094 2.55065 2.11858 2.51858 2.09421C2.52427 2.09178 2.53082 2.08841 2.53839 2.08386C2.59408 2.05043 2.56309 2.0319 2.50709 2.06254V2.06254ZM2.27289 2.15939L2.27299 2.15925L2.27348 2.15975L2.2733 2.15992L2.27289 2.15939V2.15939ZM2.31818 2.15951C2.31835 2.15929 2.31852 2.15908 2.31868 2.15885L2.31868 2.15882C2.31916 2.15929 2.31964 2.15974 2.32011 2.16019C2.31983 2.16043 2.31954 2.16068 2.31926 2.16093C2.3189 2.16045 2.31854 2.15998 2.31818 2.15951V2.15951ZM2.41181 2.11046C2.41231 2.1108 2.4128 2.11112 2.41329 2.11145C2.4132 2.11171 2.41312 2.11197 2.41303 2.11224L2.41304 2.11226C2.41243 2.11197 2.41184 2.1117 2.41124 2.11143C2.41143 2.11111 2.41162 2.11079 2.41181 2.11046V2.11046ZM2.4556 2.09649L2.45617 2.09685L2.45611 2.09701C2.4559 2.09691 2.4557 2.09681 2.45549 2.0967L2.4556 2.09649V2.09649ZM2.40563 2.14846C2.40262 2.14604 2.39901 2.14349 2.3948 2.14084C2.39967 2.14341 2.40466 2.14575 2.40974 2.14786C2.40843 2.14803 2.40705 2.14823 2.40563 2.14846V2.14846Z" fill="#2ABA34"/>
<path d="M2.64847 2.11421C2.7305 2.11421 2.7305 2.1975 2.64847 2.1975C2.56644 2.1975 2.56644 2.11421 2.64847 2.11421ZM2.70999 2.29461C2.79202 2.29461 2.79202 2.21132 2.70999 2.21132C2.62796 2.21132 2.62796 2.29461 2.70999 2.29461ZM2.668 2.37596C2.75003 2.37596 2.75003 2.29267 2.668 2.29267C2.58597 2.29267 2.58597 2.37596 2.668 2.37596Z" fill="#F9F9F7"/>
<path d="M2.61782 2.27202C2.61629 2.27406 2.61407 2.27547 2.61157 2.276C2.60907 2.27652 2.60647 2.27611 2.60425 2.27485L2.60341 2.27437L2.59864 2.27167C2.59708 2.27086 2.5951 2.26997 2.5929 2.2689C2.5906 2.26797 2.58803 2.26687 2.58515 2.26587C2.58223 2.26494 2.57912 2.26385 2.57569 2.26309C2.57233 2.26213 2.56867 2.26162 2.56495 2.26092L2.55923 2.26029C2.55731 2.26002 2.55535 2.25998 2.55339 2.25993L2.55044 2.25983L2.54896 2.25978L2.54748 2.25985L2.54157 2.26011C2.53961 2.26026 2.53767 2.2606 2.53574 2.26082L2.53286 2.26118L2.53005 2.26181C2.5282 2.26224 2.52635 2.26258 2.52455 2.26304L2.51933 2.2647C2.51848 2.26497 2.51763 2.26521 2.5168 2.2655L2.51441 2.26653L2.5098 2.26847C2.50688 2.26992 2.50423 2.27149 2.50174 2.27278C2.49956 2.27425 2.4977 2.27559 2.49598 2.2767L2.49473 2.27752L2.49329 2.27869L2.49075 2.28077L2.48592 2.2847C2.47755 2.29154 2.46522 2.29029 2.45839 2.28191C2.45155 2.27354 2.4528 2.26121 2.46118 2.25438C2.46179 2.25388 2.46242 2.25343 2.46306 2.25302L2.46318 2.25295L2.46845 2.24964C2.46991 2.24873 2.47136 2.24782 2.47281 2.24691L2.47503 2.24572C2.47809 2.24412 2.48157 2.24226 2.48533 2.24046C2.48904 2.23903 2.49301 2.23736 2.49729 2.23592L2.504 2.23402L2.50745 2.23307C2.50863 2.23281 2.50984 2.23262 2.51105 2.23239L2.51839 2.23107C2.52088 2.23076 2.52342 2.23059 2.52596 2.23035L2.52978 2.23003L2.53363 2.23001C2.5362 2.23003 2.53877 2.22995 2.54133 2.23007L2.54895 2.23069L2.55085 2.23085L2.55272 2.23114L2.55643 2.23173C2.55889 2.23212 2.56133 2.23249 2.56368 2.23312C2.56605 2.23368 2.56838 2.23421 2.57066 2.2348C2.57118 2.23497 2.5717 2.23512 2.57222 2.23529C2.56996 2.23305 2.56735 2.23097 2.56478 2.22874L2.56014 2.22532C2.55862 2.22412 2.55694 2.2231 2.55527 2.22207L2.55277 2.2205L2.55152 2.21971L2.5502 2.21903L2.54496 2.21629C2.54319 2.21544 2.54134 2.21476 2.53956 2.21398L2.53689 2.21284L2.53415 2.21197C2.53233 2.21141 2.53056 2.21078 2.52877 2.21027L2.52343 2.20908C2.52256 2.20889 2.5217 2.20867 2.52084 2.20851L2.51825 2.2082L2.51328 2.20756C2.51004 2.20734 2.50695 2.20737 2.50415 2.20724C2.50153 2.20741 2.49926 2.20763 2.4972 2.20773L2.49572 2.20781L2.49388 2.2081L2.49064 2.20862L2.48449 2.2096C2.47381 2.2113 2.46378 2.20402 2.46208 2.19335C2.46038 2.18268 2.46766 2.17264 2.47833 2.17095C2.47911 2.17082 2.47988 2.17075 2.48064 2.17071L2.48078 2.17071L2.487 2.17051L2.49028 2.1704L2.49214 2.17033L2.49465 2.17042C2.49811 2.17057 2.50205 2.17071 2.5062 2.17105C2.51013 2.17168 2.5144 2.17222 2.51883 2.17312L2.52558 2.17486L2.52905 2.17577C2.5302 2.17614 2.53134 2.17658 2.5325 2.17699L2.53951 2.17954C2.54182 2.18052 2.5441 2.18165 2.54642 2.18272L2.54988 2.18436L2.55322 2.18628C2.55543 2.18758 2.55769 2.18881 2.55984 2.1902L2.56613 2.19457L2.56768 2.19566L2.56915 2.19685L2.57206 2.19922C2.574 2.20079 2.57592 2.20234 2.57764 2.20406C2.5794 2.20574 2.58116 2.20737 2.58282 2.20902C2.586 2.2125 2.58914 2.21576 2.59173 2.21919C2.59448 2.22247 2.59674 2.22586 2.59886 2.22892C2.60093 2.23204 2.60263 2.23503 2.60416 2.23765C2.60556 2.24039 2.6068 2.24273 2.60774 2.24472L2.61046 2.25114C2.61085 2.25206 2.61109 2.25301 2.61121 2.25396L2.61571 2.25733C2.61681 2.25816 2.61774 2.25919 2.61845 2.26038C2.61915 2.26156 2.61961 2.26287 2.61981 2.26424C2.62 2.2656 2.61993 2.26699 2.61959 2.26833C2.61925 2.26966 2.61865 2.27092 2.61782 2.27202V2.27202Z" fill="#FF473E"/>
<path d="M2.44808 2.39117C2.38625 2.37414 2.42562 2.24152 2.49415 2.2488C2.56269 2.25607 2.684 2.45614 2.44808 2.39117V2.39117ZM2.39312 2.26499C2.42198 2.2024 2.26773 2.15218 2.23178 2.20529C2.09461 2.40793 2.36426 2.32757 2.39312 2.26499Z" fill="#E2AF8D"/>
<path d="M2.33801 2.39917C2.27618 2.38214 2.31555 2.24952 2.38408 2.2568C2.45262 2.26407 2.57393 2.46414 2.33801 2.39917V2.39917Z" fill="#D19878"/>
<g style="mix-blend-mode:lighten">
<path d="M1.7076 1.06323C1.73766 0.972393 1.6781 0.981362 1.6287 1.0777C1.62807 1.07761 1.62744 1.07754 1.62681 1.07746C1.65482 0.987116 1.58923 1.00276 1.5395 1.11075C1.56936 1.02846 1.51878 1.03064 1.4678 1.09285C1.4786 1.02893 1.42228 1.04894 1.37736 1.14316C1.35676 1.13955 1.34813 1.15179 1.36049 1.17807C1.35702 1.17936 1.35358 1.18074 1.35017 1.18219C1.28499 1.12984 1.24244 1.14514 1.29364 1.21379L1.29271 1.21443C1.21614 1.13753 1.15568 1.14416 1.20496 1.21544C1.20407 1.21571 1.20316 1.21601 1.20223 1.21635C1.12975 1.14723 1.0746 1.15444 1.11942 1.22136C1.10709 1.22226 1.09251 1.22438 1.07523 1.22806C0.948167 1.2551 0.994737 1.31029 1.12058 1.28872C1.06264 1.36486 1.12187 1.37573 1.1999 1.30067C1.20048 1.30096 1.20105 1.30124 1.20162 1.30151C1.14577 1.37785 1.21289 1.38437 1.295 1.2984C1.24003 1.36653 1.28857 1.38089 1.357 1.33862C1.32259 1.40187 1.40013 1.3941 1.48353 1.29295C1.50751 1.29264 1.53784 1.28816 1.57269 1.27743C1.57269 1.27743 1.58085 1.2625 1.57601 1.24981C1.61687 1.25111 1.62136 1.22356 1.55959 1.18464C1.66274 1.23886 1.72358 1.21298 1.65162 1.15996C1.65237 1.15941 1.65313 1.15883 1.6539 1.15821C1.7449 1.20003 1.79472 1.17529 1.73058 1.12656C1.74195 1.1217 1.75506 1.11496 1.77021 1.10587C1.88159 1.03901 1.81961 1.00194 1.7076 1.06323V1.06323ZM1.23919 1.25692L1.23941 1.25664L1.24038 1.25763L1.24002 1.25798L1.23919 1.25692V1.25692ZM1.32978 1.25716C1.33012 1.25672 1.33045 1.25629 1.33078 1.25584L1.33078 1.25579C1.33175 1.25673 1.3327 1.25763 1.33365 1.25852C1.33308 1.25901 1.33251 1.2595 1.33194 1.25999C1.33122 1.25904 1.33051 1.2581 1.32978 1.25716V1.25716ZM1.51705 1.15907C1.51803 1.15974 1.51901 1.16039 1.52 1.16104C1.51983 1.16157 1.51965 1.16208 1.51948 1.16261L1.51951 1.16266C1.51828 1.16209 1.51709 1.16155 1.5159 1.16101C1.51628 1.16037 1.51667 1.15973 1.51705 1.15907V1.15907ZM1.60463 1.13111L1.60576 1.13183L1.60564 1.13217C1.60522 1.13195 1.60482 1.13176 1.6044 1.13155L1.60463 1.13111V1.13111ZM1.50468 1.23505C1.49865 1.23021 1.49144 1.22512 1.48303 1.21982C1.49276 1.22496 1.50273 1.22964 1.51291 1.23385C1.51027 1.23419 1.50752 1.2346 1.50468 1.23505V1.23505Z" fill="#2ABA34"/>
</g>
<g style="mix-blend-mode:lighten" filter="url(#filter0_b_0_1)">
<path d="M4.89943 1.86956C5.06603 1.68268 4.92572 1.6437 4.71066 1.82411C4.70938 1.82326 4.70809 1.82243 4.70678 1.82162C4.86836 1.63383 4.70742 1.60468 4.47872 1.81266C4.63541 1.64602 4.52228 1.59991 4.34163 1.69704C4.43621 1.55502 4.29072 1.54576 4.08784 1.72564C4.04676 1.69611 4.01428 1.71662 4.01217 1.79208C4.00314 1.79164 3.99408 1.79143 3.98501 1.79145C3.90042 1.6 3.79029 1.59344 3.82619 1.80969L3.82344 1.81029C3.74117 1.54852 3.60148 1.50302 3.63024 1.72362C3.62799 1.72336 3.62567 1.72317 3.62326 1.72303C3.54132 1.48404 3.41259 1.44532 3.43644 1.65098C3.40845 1.64062 3.37417 1.63088 3.33226 1.62214C3.02412 1.55788 3.06482 1.73724 3.36422 1.81335C3.1529 1.93676 3.2705 2.02289 3.52459 1.92246C3.52553 1.92375 3.52648 1.92499 3.52741 1.92622C3.32044 2.05224 3.46013 2.13597 3.73529 2.01356C3.53934 2.12081 3.62965 2.20446 3.82636 2.17276C3.68084 2.2892 3.85921 2.34932 4.15403 2.19189C4.20685 2.21549 4.27822 2.23555 4.36642 2.24526C4.36642 2.24526 4.40085 2.21781 4.40433 2.18252C4.49232 2.2271 4.53273 2.16572 4.4407 2.00988C4.60633 2.24435 4.76823 2.24416 4.66954 2.04422C4.6718 2.04368 4.67411 2.04306 4.67647 2.04236C4.82926 2.23481 4.96577 2.22617 4.87946 2.04445C4.90974 2.04436 4.9459 2.04154 4.98916 2.03515C5.30716 1.98819 5.21263 1.83657 4.89943 1.86956ZM3.65914 1.85766L3.65993 1.85721L3.66095 1.86056L3.65979 1.86102L3.65914 1.85766ZM3.85718 1.95018L3.86084 1.94804C3.86191 1.95128 3.86305 1.95425 3.86413 1.95736C3.86235 1.95794 3.86056 1.95853 3.85876 1.95914C3.85825 1.95615 3.85772 1.95316 3.85718 1.95018ZM4.37595 1.9055C4.37738 1.90811 4.3788 1.91066 4.38023 1.91322L4.37736 1.91646C4.37532 1.91384 4.3733 1.91149 4.37129 1.90899C4.37284 1.90784 4.3744 1.90669 4.37595 1.9055ZM4.5987 1.9275L4.60037 1.93036L4.59771 1.92831L4.5987 1.9275ZM4.26457 2.0748C4.25674 2.0571 4.24661 2.03759 4.23407 2.01635C4.24968 2.03853 4.26631 2.05987 4.2839 2.08028C4.27776 2.07842 4.27128 2.07659 4.26457 2.0748Z" fill="#2ABA34"/>
</g>
<g filter="url(#filter1_b_0_1)">
<path d="M2.43903 9.17311e-05L2.44642 0.00225623C2.45131 0.0046084 2.45795 0.0032947 2.46793 0.0152182C2.47275 0.0203479 2.47864 0.0249397 2.48358 0.0348488C2.48872 0.0441949 2.49494 0.0527528 2.49987 0.0678668L2.50805 0.0899247C2.51082 0.0976818 2.51286 0.107453 2.51539 0.116712C2.52075 0.135016 2.5241 0.157725 2.52801 0.181246C2.53438 0.229216 2.53902 0.285843 2.53677 0.346274C2.53477 0.406091 2.52784 0.470563 2.5131 0.525502C2.49887 0.581328 2.47615 0.623229 2.45223 0.639182L2.44321 0.645638C2.4421 0.646889 2.43863 0.64854 2.43646 0.649992L2.429 0.654471L2.42351 0.65965C2.41631 0.665543 2.40822 0.677179 2.40122 0.68854C2.38716 0.713025 2.37488 0.746431 2.36634 0.787669C2.3579 0.828732 2.35153 0.874499 2.3493 0.92183C2.34691 0.968823 2.347 1.01617 2.3501 1.05953C2.3532 1.10281 2.35844 1.1425 2.36532 1.17593C2.37174 1.20659 2.37975 1.23419 2.38906 1.25774C2.39749 1.27933 2.40627 1.29355 2.4136 1.30521C2.42117 1.31526 2.42733 1.32353 2.43175 1.32715L2.43847 1.33406C2.43984 1.3355 2.44159 1.33894 2.44231 1.34264C2.44303 1.34635 2.44327 1.35068 2.44298 1.35485C2.44269 1.35903 2.4419 1.36276 2.44074 1.36536C2.43958 1.36797 2.43814 1.36927 2.43668 1.36904L2.42896 1.36773C2.42389 1.36713 2.41646 1.36434 2.40705 1.35806C2.39782 1.35044 2.38619 1.34084 2.37433 1.31977C2.36236 1.29973 2.34961 1.27106 2.33868 1.23164C2.31646 1.15426 2.30149 1.03475 2.30576 0.906766C2.30772 0.843157 2.31392 0.776884 2.32616 0.717304C2.33804 0.657386 2.35591 0.605088 2.3768 0.567941C2.38775 0.550863 2.39821 0.536474 2.4107 0.526628L2.41988 0.519358L2.42737 0.51533C2.43015 0.513728 2.4317 0.51324 2.43549 0.510713L2.44117 0.506709C2.45626 0.496838 2.46996 0.477745 2.4793 0.444652C2.48874 0.412597 2.49524 0.372823 2.49817 0.331673C2.50114 0.290235 2.49976 0.249159 2.4971 0.2125C2.49512 0.194784 2.49352 0.176955 2.49046 0.162279C2.48905 0.154797 2.4881 0.146352 2.48643 0.139846L2.48148 0.120728C2.47864 0.106915 2.47425 0.0993208 2.47099 0.0891614C2.46766 0.078339 2.46398 0.0736722 2.46079 0.0672913C2.45493 0.0538914 2.44734 0.0475605 2.44302 0.0424183L2.43612 0.0344359C2.43537 0.0335688 2.43468 0.0322808 2.43411 0.0306456C2.43353 0.0290105 2.43307 0.0270601 2.43275 0.0249061C2.43243 0.022752 2.43226 0.0204363 2.43225 0.0180914C2.43224 0.0157464 2.43239 0.0134182 2.43268 0.0112395C2.43318 0.00763251 2.43407 0.00459503 2.43522 0.00258446C2.43636 0.000573888 2.4377 -0.000300935 2.43903 9.17311e-05ZM2.08426 0.660939C2.08293 0.654854 2.08082 0.650559 2.07839 0.648996C2.07597 0.647434 2.07344 0.648732 2.07134 0.652606L2.0664 0.661765C2.06315 0.668821 2.05851 0.673939 2.05238 0.690454L2.0424 0.716578L2.03225 0.749946C2.02557 0.77527 2.01892 0.806111 2.01305 0.842432C2.00791 0.879328 2.00326 0.921242 2.00139 0.967435C1.99882 1.01355 2.00009 1.06334 2.00295 1.11408C2.00594 1.16512 2.013 1.21568 2.02241 1.26352C2.02757 1.28667 2.03275 1.31026 2.03933 1.33093C2.04245 1.34168 2.04557 1.35249 2.04925 1.36166L2.05883 1.38647C2.06436 1.40141 2.07228 1.41938 2.07459 1.43039C2.07821 1.44112 2.08174 1.4571 2.08531 1.47211C2.09148 1.5038 2.09681 1.53642 2.09992 1.57063C2.10277 1.60471 2.10501 1.63894 2.10486 1.67205C2.10527 1.70518 2.10406 1.73683 2.10203 1.76597C2.10056 1.77997 2.09993 1.79467 2.09835 1.80758C2.09668 1.82033 2.09532 1.8331 2.09364 1.84459L2.0886 1.87699C2.08667 1.88637 2.08487 1.89519 2.08331 1.90354C2.08033 1.92063 2.07675 1.93134 2.0749 1.9406L2.07177 1.9542L2.07096 1.95771C2.0698 1.96272 2.06926 1.96871 2.0694 1.97473C2.06955 1.98076 2.07038 1.98646 2.07176 1.99096C2.07314 1.99546 2.075 1.99848 2.07705 1.99956C2.07909 2.00064 2.08119 1.99971 2.08303 1.99692C2.08303 1.99692 2.08499 1.99396 2.08865 1.98844C2.09217 1.9823 2.09808 1.97524 2.10405 1.96043C2.10719 1.95346 2.11074 1.94571 2.11433 1.93635L2.12515 1.90337C2.13231 1.8782 2.13939 1.84697 2.14556 1.8099C2.15082 1.77216 2.15609 1.72935 2.15773 1.68186C2.16016 1.6346 2.15896 1.58342 2.15544 1.53189C2.15181 1.48021 2.14425 1.42909 2.13407 1.3819C2.12853 1.35915 2.12319 1.33631 2.11545 1.31382C2.10764 1.28829 2.10235 1.27861 2.09599 1.26202L2.08732 1.24075C2.08466 1.23538 2.08249 1.22854 2.08027 1.22183C2.07548 1.20928 2.07179 1.19406 2.06785 1.17944C2.0609 1.1484 2.05506 1.11521 2.05132 1.08035C2.04781 1.04551 2.04563 1.00989 2.04565 0.975642C2.04501 0.941185 2.04684 0.908643 2.04898 0.878678C2.05144 0.8489 2.05479 0.822075 2.05858 0.799054L2.06429 0.767062L2.06988 0.742564C2.07271 0.727188 2.07755 0.714551 2.07967 0.706193L2.08348 0.693244C2.08478 0.688813 2.08556 0.683282 2.0857 0.677467C2.08584 0.671652 2.08534 0.665858 2.08426 0.660939ZM2.92525 0.660939C2.92392 0.654854 2.92181 0.650559 2.91939 0.648996C2.91697 0.647434 2.91443 0.648732 2.91234 0.652606L2.90739 0.661765C2.90415 0.668821 2.89951 0.673939 2.89338 0.690454L2.8834 0.716578L2.87324 0.749946C2.86656 0.77527 2.85992 0.806111 2.85405 0.842432C2.8489 0.879328 2.84425 0.921242 2.84238 0.967435C2.83981 1.01355 2.84108 1.06334 2.84395 1.11408C2.84694 1.16512 2.854 1.21568 2.8634 1.26352C2.86856 1.28667 2.87374 1.31026 2.88032 1.33093C2.88344 1.34168 2.88656 1.35249 2.89025 1.36166L2.89982 1.38647C2.90536 1.40141 2.91327 1.41938 2.91558 1.43039C2.91921 1.44112 2.92273 1.4571 2.9263 1.47211C2.93247 1.5038 2.9378 1.53642 2.94091 1.57063C2.94376 1.60471 2.946 1.63894 2.94585 1.67205C2.94627 1.70518 2.94506 1.73683 2.94303 1.76597C2.94155 1.77997 2.94092 1.79467 2.93934 1.80758C2.93767 1.82033 2.93632 1.8331 2.93464 1.84459L2.92959 1.87699C2.92766 1.88637 2.92586 1.89519 2.92431 1.90354C2.92133 1.92063 2.91775 1.93134 2.9159 1.9406L2.91277 1.9542L2.91195 1.95771C2.9108 1.96272 2.91025 1.96871 2.91039 1.97473C2.91054 1.98076 2.91137 1.98646 2.91275 1.99096C2.91414 1.99546 2.916 1.99848 2.91804 1.99956C2.92008 2.00064 2.92219 1.99971 2.92403 1.99692C2.92403 1.99692 2.92598 1.99396 2.92964 1.98844C2.93316 1.9823 2.93907 1.97524 2.94505 1.96043C2.94818 1.95346 2.95173 1.94571 2.95533 1.93635L2.96614 1.90337C2.97331 1.8782 2.98039 1.84697 2.98655 1.8099C2.99181 1.77216 2.99709 1.72935 2.99873 1.68186C3.00116 1.6346 2.99995 1.58342 2.99644 1.53189C2.99281 1.48021 2.98524 1.42909 2.97506 1.3819C2.96952 1.35915 2.96419 1.33631 2.95644 1.31382C2.94863 1.28829 2.94335 1.27861 2.93698 1.26202L2.92832 1.24075C2.92565 1.23538 2.92349 1.22854 2.92127 1.22183C2.91648 1.20928 2.91279 1.19406 2.90884 1.17944C2.9019 1.1484 2.89606 1.11521 2.89231 1.08035C2.88881 1.04551 2.88663 1.00989 2.88664 0.975642C2.886 0.941185 2.88784 0.908643 2.88998 0.878678C2.89244 0.8489 2.89579 0.822075 2.89958 0.799054L2.90529 0.767062L2.91087 0.742564C2.9137 0.727188 2.91854 0.714551 2.92067 0.706193L2.92447 0.693244C2.92577 0.688811 2.92655 0.683281 2.92669 0.677467C2.92683 0.671652 2.92633 0.665859 2.92525 0.660939ZM2.61633 1.89927C2.61758 1.89664 2.61843 1.89266 2.61869 1.88821C2.61894 1.88376 2.61857 1.8792 2.61767 1.87554L2.61553 1.86689C2.61431 1.86135 2.61168 1.85273 2.61004 1.84273C2.60793 1.83331 2.60588 1.82058 2.60367 1.80595C2.60183 1.79111 2.59993 1.77447 2.59944 1.75615C2.5984 1.73813 2.59908 1.7186 2.6006 1.69935C2.60211 1.67999 2.60519 1.66075 2.60954 1.64292C2.61411 1.62413 2.61969 1.60758 2.62605 1.59388C2.62765 1.59013 2.62928 1.58644 2.63115 1.58337L2.63761 1.5713C2.64193 1.56232 2.64546 1.55744 2.65086 1.54169C2.66118 1.51439 2.66713 1.48669 2.67279 1.45595C2.67826 1.42572 2.68119 1.39359 2.68326 1.36269C2.68535 1.33167 2.68528 1.30107 2.68458 1.27258C2.68378 1.244 2.68159 1.21748 2.67883 1.19383C2.67625 1.17233 2.6728 1.15179 2.66855 1.13266C2.66463 1.11575 2.66078 1.10218 2.65702 1.09242C2.65375 1.08177 2.65008 1.07621 2.64804 1.07166L2.64475 1.06514C2.64368 1.063 2.64239 1.06197 2.6411 1.06221C2.6398 1.06245 2.63857 1.06395 2.63761 1.06647C2.63664 1.06898 2.63599 1.07236 2.63576 1.07608C2.63553 1.07979 2.63574 1.08362 2.63635 1.08696L2.63685 1.08971L2.63847 1.09866C2.63934 1.10489 2.64133 1.11188 2.64269 1.12319C2.64428 1.13393 2.64615 1.1466 2.64748 1.1621C2.64893 1.17729 2.6503 1.19452 2.65088 1.21375C2.65193 1.2326 2.65176 1.25361 2.6516 1.27529C2.65144 1.29714 2.64997 1.31975 2.64841 1.34263C2.64667 1.36546 2.64384 1.38802 2.64043 1.40943C2.63707 1.42976 2.63197 1.45227 2.62738 1.46463C2.62602 1.47086 2.62077 1.48107 2.61716 1.48985C2.6169 1.49038 2.61893 1.48645 2.61793 1.4884L2.61716 1.48985L2.6165 1.49142L2.61474 1.49513L2.61126 1.50259C2.6089 1.50731 2.6067 1.51289 2.60456 1.51859C2.59579 1.54036 2.58821 1.56684 2.58293 1.59626C2.57761 1.62537 2.57384 1.65663 2.5732 1.68737C2.57252 1.7178 2.5734 1.74684 2.57627 1.7714C2.57886 1.79624 2.58288 1.81641 2.58655 1.83337C2.59068 1.8494 2.59453 1.86259 2.59822 1.8726C2.60177 1.88341 2.60455 1.88773 2.60645 1.89248L2.60936 1.89893C2.61036 1.90115 2.61157 1.90238 2.61282 1.90244C2.61408 1.9025 2.61531 1.90139 2.61633 1.89927Z" fill="#D7F4F7"/>
</g>
<g style="mix-blend-mode:lighten" filter="url(#filter2_b_0_1)">
<path d="M1.062 3.06C0.876 3.06 0.712 3.015 0.57 2.925C0.43 2.835 0.322 2.713 0.246 2.559C0.17 2.403 0.132 2.23 0.132 2.04C0.132 1.844 0.173 1.663 0.255 1.497C0.339 1.331 0.452 1.2 0.594 1.104C0.738 1.008 0.894 0.96 1.062 0.96C1.222 0.96 1.362 0.983 1.482 1.029C1.604 1.073 1.694 1.13 1.752 1.2C1.786 1.242 1.807 1.298 1.815 1.368C1.823 1.436 1.827 1.53 1.827 1.65H1.767C1.729 1.456 1.659 1.313 1.557 1.221C1.455 1.127 1.32 1.08 1.152 1.08C0.936 1.08 0.762 1.156 0.63 1.308C0.498 1.46 0.432 1.704 0.432 2.04C0.432 2.198 0.457 2.345 0.507 2.481C0.559 2.617 0.639 2.728 0.747 2.814C0.855 2.898 0.99 2.94 1.152 2.94C1.298 2.94 1.425 2.905 1.533 2.835C1.643 2.765 1.741 2.66 1.827 2.52L1.887 2.565C1.795 2.745 1.681 2.873 1.545 2.949C1.411 3.023 1.25 3.06 1.062 3.06Z" fill="#8A6A6A"/>
</g>
<g style="mix-blend-mode:lighten" filter="url(#filter3_b_0_1)">
<path d="M3.318 1.38C3.318 1.278 3.304 1.203 3.276 1.155C3.248 1.105 3.192 1.08 3.108 1.08H3.048V1.02H3.318C3.392 1.02 3.447 1.03 3.483 1.05C3.521 1.068 3.548 1.102 3.564 1.152C3.58 1.202 3.588 1.278 3.588 1.38V1.92H4.488V1.02H4.758V2.64C4.758 2.742 4.772 2.818 4.8 2.868C4.828 2.916 4.884 2.94 4.968 2.94H5.028V3H4.758C4.684 3 4.628 2.991 4.59 2.973C4.554 2.953 4.528 2.918 4.512 2.868C4.496 2.818 4.488 2.742 4.488 2.64V2.04H3.588V3H3.318V1.38Z" fill="#8A6A6A"/>
</g>
<defs>
<filter id="filter0_b_0_1" x="-0.880402" y="-2.48232" width="10.0664" height="8.76943" filterUnits="userSpaceOnUse" color-interpolation-filters="sRGB">
<feFlood flood-opacity="0" result="BackgroundImageFix"/>
<feGaussianBlur in="BackgroundImageFix" stdDeviation="2"/>
<feComposite in2="SourceAlpha" operator="in" result="effect1_backgroundBlur_0_1"/>
<feBlend mode="normal" in="SourceGraphic" in2="effect1_backgroundBlur_0_1" result="shape"/>
</filter>
<filter id="filter1_b_0_1" x="-2" y="-4" width="9" height="10" filterUnits="userSpaceOnUse" color-interpolation-filters="sRGB">
<feFlood flood-opacity="0" result="BackgroundImageFix"/>
<feGaussianBlur in="BackgroundImageFix" stdDeviation="2"/>
<feComposite in2="SourceAlpha" operator="in" result="effect1_backgroundBlur_0_1"/>
<feBlend mode="normal" in="SourceGraphic" in2="effect1_backgroundBlur_0_1" result="shape"/>
</filter>
<filter id="filter2_b_0_1" x="-3.868" y="-3.04" width="9.75499" height="10.1" filterUnits="userSpaceOnUse" color-interpolation-filters="sRGB">
<feFlood flood-opacity="0" result="BackgroundImageFix"/>
<feGaussianBlur in="BackgroundImageFix" stdDeviation="2"/>
<feComposite in2="SourceAlpha" operator="in" result="effect1_backgroundBlur_0_1"/>
<feBlend mode="normal" in="SourceGraphic" in2="effect1_backgroundBlur_0_1" result="shape"/>
</filter>
<filter id="filter3_b_0_1" x="-0.951996" y="-2.98" width="9.98" height="9.98" filterUnits="userSpaceOnUse" color-interpolation-filters="sRGB">
<feFlood flood-opacity="0" result="BackgroundImageFix"/>
<feGaussianBlur in="BackgroundImageFix" stdDeviation="2"/>
<feComposite in2="SourceAlpha" operator="in" result="effect1_backgroundBlur_0_1"/>
<feBlend mode="normal" in="SourceGraphic" in2="effect1_backgroundBlur_0_1" result="shape"/>
</filter>
</defs>
</svg>
