<?xml version="1.0" encoding="utf-8"?>
<!-- Generator: Adobe Illustrator 18.1.1, SVG Export Plug-In . SVG Version: 6.00 Build 0)  -->
<svg version="1.1" id="Layer_1" xmlns="http://www.w3.org/2000/svg" xmlns:xlink="http://www.w3.org/1999/xlink" x="0px" y="0px"
	 viewBox="0 0 1962 1323.9" enable-background="new 0 0 1962 1323.9" xml:space="preserve">
<rect fill="#85B5C0" width="1962" height="1323.9"/>
<g>
	<path fill="#DEF2F8" d="M423.5,1322.9h1272.1c-15.8-55.4-36.9-110.5-37.4-167.4c-0.5-61.3,22.9-121,53.5-176.6
		c58.7-106.6,144.1-201.9,198.4-310.1c54.4-108.2,73.7-239,0-339.4c-39.7-54-102.2-93.6-168-125.1c-189-90.4-417.1-121.7-630-86.6
		c-111,18.3-226.7,53.8-333.6,22.1C721.4,123,674.3,88.5,620,66C474.5,5.6,280.4,46.7,187.7,157.5c-51.8,62-72.2,138.7-81.5,214
		C78.7,594.6,139.2,821,243.4,1028.1C294.7,1130,356.2,1227.8,423.5,1322.9z"/>
</g>
<g>
	<path fill-rule="evenodd" clip-rule="evenodd" fill="#3A3341" d="M728.8,400c-11.2,66.5,49.3,127.2,20.1,187.8
		c-15.1,31.4-46.4,53.4-58,86.4c-17.8,50.4,16.6,104.7,14.1,158.1c-0.8,16.4-4.6,34.6,4.9,47.9c7.3,10.3,20.5,14.2,32.7,17
		c41.5,9.2,84.4,12,126.7,8.2c67.9-6.1,136.3-29,202.8-14.1c32.1,7.2,61.9,23,94.2,29.4c32.3,6.4,70.5,0.7,89.6-26.4
		c18.7-26.5,12.5-63.1,2.6-94.1c-9.9-31-23-63.4-15.4-95.1c6.9-28.7,29.7-51.3,37.6-79.8c7.8-28.2,0-58-7.8-86.2
		c-23.1-83.4-47.5-169.3-101.4-236.6s-145.9-111.4-226.9-82.9c-64.3,22.6-100.7-38.6-138.4,18.7C785,270.7,750.1,367.7,728.8,400"/>
</g>
<g>
	<path fill="#F1C9A7" d="M1222.5,883.2c2.8-36.9-2.3-74.3-14.7-109.1c-6.4-18-15.2-35.7-29.7-48.2c-14.5-12.4-35.7-18.5-53.2-10.9
		c-24.3,10.5-32,40.7-36.6,66.8c-3.9,22.1-7.9,44.4-6.7,66.8c2.7,55.1,35.3,104,69.7,147.1c11.6,14.6,18.6,39.7,27.7,56
		c16.8,29.9,28.4,54.6,49.5,81.7c3.8,4.8,8.5,9.6,14.6,10.1c14.7,1.2,18.4-20,16.4-34.6c-13.5-98.1-27-196.3-40.5-294.4"/>
</g>
<path fill="#F1C9A7" d="M1787.7,797.8c-0.1,0.3-0.5,0.3-0.7,0.4c-12.7,8.1-26,15.5-38,24.5c-13.7,10.2-28.8,13.9-45.5,15.5
	c-18.2,1.7-36.1,5.9-54.2,8.9c-3.8,0.6-7.7,0.9-11.6,0.9c-25.4,0.1-50.8,0-76.2,0.2c-2.7,0-6.1,0.8-7.9,2.5
	c-8,7.5-17.1,14.5-22.8,23.6c-14.5,23.2-27.7,47.2-40.9,71.3c-19.6,35.9-40.4,70.9-66.1,103c-18.1,22.6-35.2,46-53.8,68.2
	c-26.3,31.4-56.3,58.8-92.3,79.1c-12.5,7-16.1,6.8-25.3-4c-16.5-19.1-28.2-40.9-37.4-64.2c-5.9-15-13.2-30-15.4-45.7
	c-3.1-21.8-6.1-42.1-6-64.2c0.1-20.6,2-41.7,3.1-62.3c1.2-22.6,1.6-44.8-3.9-66.8c-5.6-22.4-16.4-41.1-31.8-58.3
	c-20.8-23.2-47.4-47-58.1-77.5c-6.6-18.9-5.4-15.2-12.3-34.4c7.4-1.5,18.6,56.4,16.7-4.8c13.8,34.9,32.3-8.8,43,7.2
	c8.9,13.3,20.1,14.4,26.3,29.1c10.4,24.9,32.5,50.4,41.4,75.9c16.5,46.9,32.6,94,48.8,141.1c7.3,21.1,24.5,54,28.4,64.9
	c13-14.3,14.7-9.9,28.3-24.5c36-38.5,71.7-77.3,108.3-115.1c28.6-29.6,62.1-45.4,83.2-81.4c5.5-9.4,12.2-18.2,22.4-22.1
	c14.2-5.4,29.1-9.1,43.7-13.7c13.1-4.2,26.8-7.3,39-13.4c13.8-6.8,26.1-16.5,39.2-24.6c3.8-2.3,8-7,12.9-2.1
	c4.7,4.8,0.8,9.4-1.3,13.8c-0.2,0.4-0.4,0.9-0.7,1.2c-3.4,2.9-2.2,5.9-0.1,8.9c10.1,14.1,17.6,29,12.9,47.2c0,0.2,0.2,0.4,0.3,0.7
	c5.5,0.1,7.4-2.7,7.5-8.1c0.4-11.6,0.7-23.3,2.2-34.7c0.7-5.3,3.4-11,6.8-15.3c3.6-4.7,8.1-3,9.1,2.9c0.7,4.5,0.6,9.1,0.7,13.7
	c0.4,10,0.7,20,1.1,30.9c9-9.1,16.5-18,25.4-25.3c6-4.9,13.7-7.8,20.9-11.1c1.5-0.7,4.8-0.8,6,0.9c1.2,1.7,0,4.5-1.1,5.9
	c-4,5.4-8.6,10.5-12.8,15.8c-6.7,8.2-13.4,16.5-20,24.7c9-2.1,16.8-5.4,24.5-8.9c10.7-4.8,22.5-9.8,33-3.4
	C1787.5,795.6,1788,796.9,1787.7,797.8z M1665.2,791.6c0.5-2.9,0.1-6.5-1.1-9.1c-2.7-5.6-6.3-10.8-10.1-17
	c-7.3,6.2-15,12.7-22.4,19.4c-3.3,3-3.7,6.1,0.1,9.8c8.3,8,17.4,13.7,28.7,13.7C1662.3,802,1664.3,796.9,1665.2,791.6z"/>
<g>
	<path fill="#F1C9A7" d="M739.5,898c-2.8-36.9,2.3-74.3,14.7-109.1c6.4-18,15.2-35.7,29.7-48.2c14.5-12.4,35.7-18.5,53.2-10.9
		c24.3,10.5,32,40.7,36.6,66.8c3.9,22.1,7.9,44.4,6.7,66.8c-2.7,55.1-35.3,104-69.7,147.1c-11.6,14.6-18.6,39.7-27.7,56
		c-16.8,29.9-28.4,54.6-49.5,81.7c-3.8,4.8-8.5,9.6-14.6,10.1c-14.7,1.2-18.4-20-16.4-34.6c13.5-98.1,27-196.3,40.5-294.4"/>
</g>
<path fill="#F1C9A7" d="M175.3,809.8c10.6-6.5,22.4-1.4,33,3.4c7.7,3.4,15.5,6.8,24.5,8.9c-6.7-8.2-13.3-16.5-20-24.7
	c-4.3-5.3-8.8-10.3-12.8-15.8c-1.1-1.4-2.3-4.3-1.1-5.9c1.2-1.7,4.5-1.6,6-0.9c7.2,3.3,14.9,6.2,20.9,11.1
	c8.9,7.3,16.4,16.2,25.4,25.3c0.4-10.9,0.7-20.9,1.1-30.9c0.2-4.6,0-9.2,0.7-13.7c1-5.9,5.5-7.5,9.1-2.9c3.3,4.3,6.1,9.9,6.8,15.3
	c1.6,11.5,1.9,23.1,2.2,34.7c0.2,5.4,2,8.2,7.5,8.1c0.1-0.3,0.4-0.6,0.3-0.7c-4.7-18.2,2.8-33,12.9-47.2c2.1-2.9,3.3-5.9-0.1-8.9
	c-0.3-0.3-0.5-0.8-0.7-1.2c-2.1-4.5-6-9-1.3-13.8c4.8-4.9,9.1-0.2,12.9,2.1c13.2,8.1,25.5,17.8,39.2,24.6c12.2,6,25.9,9.2,39,13.4
	c14.5,4.6,29.4,8.3,43.7,13.7c10.2,3.9,16.9,12.7,22.4,22.1c21.1,35.9,54.6,51.8,83.2,81.4c36.6,37.9,72.3,76.6,108.3,115.1
	c13.7,14.6,15.4,10.2,28.3,24.5c3.9-11,21.1-43.8,28.4-64.9c16.2-47.1,32.3-94.1,48.8-141.1c9-25.5,31-51,41.4-75.9
	c6.1-14.7,17.4-15.8,26.3-29.1c10.7-16,29.2,27.8,43-7.2c-1.9,61.2,9.3,3.3,16.7,4.8c-6.9,19.3-5.7,15.5-12.3,34.4
	c-10.7,30.5-37.3,54.2-58.1,77.5c-15.4,17.2-26.2,35.9-31.8,58.3c-5.5,22-5.1,44.2-3.9,66.8c1.1,20.6,3,41.7,3.1,62.3
	c0.1,22.1-2.8,42.4-6,64.2c-2.2,15.7-9.5,30.7-15.4,45.7c-9.2,23.2-21,45.1-37.4,64.2c-9.3,10.7-12.9,11-25.3,4
	c-36-20.3-66-47.7-92.3-79.1c-18.6-22.2-35.7-45.6-53.8-68.2c-25.6-32-46.5-67.1-66.1-103c-13.1-24-26.3-48.1-40.9-71.3
	c-5.7-9.1-14.9-16.1-22.8-23.6c-1.8-1.7-5.2-2.5-7.9-2.5c-25.4-0.2-50.8-0.1-76.2-0.2c-3.9,0-7.8-0.3-11.6-0.9
	c-18.1-3-36-7.2-54.2-8.9c-16.7-1.6-31.7-5.4-45.5-15.5c-12.1-9-25.3-16.4-38-24.5c-0.2-0.1-0.6-0.2-0.7-0.4
	C174,811.7,174.5,810.3,175.3,809.8z M301.5,823.1c11.3,0,20.4-5.7,28.7-13.7c3.8-3.7,3.4-6.8,0.1-9.8c-7.4-6.7-15.1-13.1-22.4-19.4
	c-3.7,6.2-7.3,11.4-10.1,17c-1.3,2.6-1.7,6.2-1.1,9.1C297.7,811.7,299.7,816.8,301.5,823.1z"/>
<g>
	<path fill="#3A3341" d="M1300.7,668.1c-0.8,0.5-10.5-2.5-19.2-11.5c-9.1-8.9-13.3-24-7.3-41.6c5.3-17.8,23.5-36.8,35.1-57.7
		c5.6-10.4,9.2-21.5,6.1-32.4c-1.4-5.5-4.7-10.9-8.9-16.2c-4.7-5.3-10.1-10.6-16.8-15.7c-26.7-20.4-62.3-38.1-82.7-59.5
		c-20.1-20.9-28.4-41.8-30.2-59.3c-1.9-17.5,2.7-31.7,7.4-41.1c5-9.4,9.9-14.3,11.4-14.1c4.3,0.4-8.6,21.2-1.1,54.2
		c3.9,16.4,13.5,35.6,33.1,54.6c9.6,9.4,23,18.4,37.6,27.7c14.7,9.3,31,18.9,45.5,30.1c7.3,5.6,13.6,11.6,18.9,17.8
		c4.9,6.3,8.7,12.9,10.3,19.5c3.4,13.4-1.6,26.3-8.3,37.5c-14,22.5-33.1,40.1-39.9,56.2c-7.6,16-6.4,29.4-1,37.9
		C1295.6,663.3,1302.4,667.4,1300.7,668.1z"/>
</g>
<path fill="#F1C9A7" d="M847.3,1256.6c8.8-22.2,12.8-46,11.6-69.9c-0.9-16.9-4.4-33.7-10.5-49.8l22.1-11l-24-78
	c-9.8-25.7-48-55.9-48-83.5c0-23.3,3.6-46.6,10.7-68.9c10.8-34.1,14.9-70.4,11.7-106.3l-9.3-53.5l79.3-24.6l28-8.2
	c21.2-5.3,19.6-7.8,24.2-30.7c0-0.1,0-0.2,0-0.2c2.8-21.7,92.7-5.7,93.2,9c0,0.1,0,0.1,0,0.1c0.1,10.7,7.5,19.7,17.3,20.7l20.2,3
	l66.3,10.1c19.9,34.2,9.2,115.7,35.2,172.8c26.6,58.4-27.6,103.4-55.8,163.2l6.4,94l-24.3,51.4c-3.5,10.3-4.7,22.7-4.7,35.9
	c0,6.2,0.2,12.4,0.7,18.7c0.8,11.1,4,21.7,9.5,31.1L847.3,1256.6z"/>
<path fill-rule="evenodd" clip-rule="evenodd" fill="#F1C9A7" d="M1040.8,637.2c-9.2,44.6,3.4,68,35.9,76
	c-8.5,48.3-31.6,89.4-81.5,86.2c-45.6-2.9-96.5-38.2-102.8-83.7c28.7-13,52.5-29.9,42.6-81.4C965.4,633.3,1011.1,639.6,1040.8,637.2
	z"/>
<path fill-rule="evenodd" clip-rule="evenodd" fill="#DFAF86" d="M1069.8,704.9c-23.6-9-36.1-28.8-28.9-64
	c-29.8,2.5-53.5,0.4-83.9,1.4c1.2,6.1-17.2,7.7-17.2,12.6c21.3,26.3,75.4,47.4,115.3,47.4C1061.7,702.3,1063.4,705.8,1069.8,704.9z"
	/>
<path fill-rule="evenodd" clip-rule="evenodd" fill="#3A3341" d="M1083.6,291.4c12.2,12.9,114.1,18.2,67.2,236.6
	c-1.1,5.2-26.8,84.2-72.6,105.6c18.3,6.5,66.4-17.7,86.9-38.3c-12.6,21.3-33.2,45.1-60.8,54.8c105.9,13.7,128.1-115,132.3-211.7
	c6.4-147.2-49.5-292-168-271c-12,2.1-45.6-24.9-84.3-22.9c-175.6,9.5-210.7,131.8-217.1,278.1c-3.5,81.3,18.9,145.2,60.9,188.7
	c18.3,18.9,45.7,30.9,82.3,28.6c-28-11-38.1-16.2-55.3-38.4c17.8,3.4-19.2-89.5-10.7-175.6C881.1,432.5,960.9,376.8,1083.6,291.4z"
	/>
<g>
	<path fill-rule="evenodd" clip-rule="evenodd" fill="#3A3341" d="M799.6,504.8c0,36.9,7.9,82.3-15.8,113.5
		c55.4-5.7,58.1-124.8,10.6-96.4"/>
</g>
<g>
	<path fill-rule="evenodd" clip-rule="evenodd" fill="#3A3341" d="M779.6,536.5c4.7-24.8-25.9-39.5-39.7-60.4
		c-9.2-13.9-10.8-31.6-12.2-48.3c-4.5-55.6-7-117.9,28.7-160c30.7-36.2,96.3-99.6,142.4-107.6c14.5-2.5,14,48.3,28,52.9
		c14,4.6,26.3,18.7,23.8,33.6c-1.5,8.8-7.5,15.9-13.3,22.6c-58.6,67-117.1,134.1-175.7,201.1"/>
</g>
<g>
	<path fill="#3A3341" d="M609.5,575.1c-0.9-0.3-4.2-9.1-2.1-21.3c1.8-12.4,11.3-25.5,28.9-32.9c17.3-8.2,43.3-8,66.7-13.7
		c11.7-3,22.6-7.8,29.5-17.3c3.5-4.7,5.9-10.6,7.7-17.1c1.5-6.8,2.5-14.2,2.6-22.4c0.6-32.6-6.3-69.6-1.2-98.3
		c4.8-28.2,16.6-48.1,29.5-61c12.9-13.1,26.9-19.2,37.2-22.2c10.5-2.8,17.2-2.5,17.9-1.3c2.2,3.3-22,8-43.9,35.4
		c-10.8,13.7-20.5,33.3-24,59.9c-1.8,13-1.1,28.5,0.1,45.1c1.2,16.6,3.2,34.6,2.7,52.3c-0.1,8.9-1.2,17.3-3.1,25.2
		c-2.1,7.7-5.1,14.7-9.6,20.3c-8.7,11.4-21.9,16.5-34.8,19.2c-26.2,5.1-51.5,3.4-68.3,9.3c-17.3,5.3-27.2,15.1-30.9,24.7
		C610.3,568.3,611,575.8,609.5,575.1z"/>
</g>
<g>
	<path fill="#466D42" d="M1589.5,833.1c22.3,11,81.9,33.1,136.4-36.8c64.9-83.2-1.4-110,34.2-182.2c6.2-12.7,10.5-25.2,13.2-37.3
		c12.3-54.1-57.7-88.5-93-45.7c-7.9,9.5-15.2,20.6-21.5,33.2c-35.6,72.3-97.2,36.1-123.5,138.3
		C1513.3,788.4,1567.2,822.1,1589.5,833.1z"/>
	<path fill="#CEE5B6" d="M1596.2,819.5c-55.1-27.1-55.5-76.4-46.1-113c13.1-50.9,34.5-62.2,59.3-75.3c21.3-11.2,45.4-24,63.1-60
		c5.3-10.8,11.9-21,19.5-30.3c13.9-16.8,33.4-15.6,45.9-9.5c12.5,6.1,25.3,20.9,20.5,42.1c-2.7,11.7-6.7,23.1-12,33.9
		c-17.7,36.1-13.1,62.9-9,86.6c4.8,27.7,8.9,51.5-23.5,93C1690.7,816.8,1651.4,846.6,1596.2,819.5z"/>
	<path fill="#B2CA98" d="M1683.5,764.1c-10.9,22.2-37.7,31.3-59.9,20.4c-22.2-10.9-31.3-37.7-20.4-59.9c10.9-22.2,44-44.2,66.2-33.3
		C1691.6,702.3,1694.4,742,1683.5,764.1z"/>
	<path fill="#6C4F30" d="M1677.2,756.2c-10.9,22.2-37.7,31.3-59.9,20.4c-22.2-10.9-31.3-37.7-20.4-59.9c10.9-22.2,44-44.2,66.2-33.3
		C1685.3,694.3,1688.1,734,1677.2,756.2z"/>
	<path fill="#573D25" d="M1676.2,696.3c5,16.1,3.5,36.4-3.2,50c-10.9,22.2-37.7,31.3-59.9,20.4c-8.2-4-14.6-10.3-18.9-17.7
		c3.4,11.6,11.4,21.8,23.1,27.5c22.2,10.9,49,1.8,59.9-20.4C1685.4,739.6,1685.8,713.1,1676.2,696.3z"/>
	<path fill="#95735A" d="M1648.6,699.1c-2.3-3.4-5.9-4.9-9.9-4.9c-2.3,0-4.5,0.6-6.8,1.1c-4.1,0.9-7.7,5.5-8.3,9.5
		c-0.5,3.2,0,6.5,1.9,9.2c1.8,2.7,4.9,4.8,8.1,5.4c4.5,0.9,8.6-0.8,11.7-4c1.6-1.6,2.8-3.5,4.1-5.4
		C1651.3,706.9,1650.6,702,1648.6,699.1z"/>
	<path fill="#B2CA98" d="M1737.4,694c-4.1-23.7-8.7-50.6,9-86.6c5.3-10.8,9.4-22.2,12-33.9c4.3-18.7-5.2-32.4-16.1-39.6
		c6.5,7.7,10.4,18.5,7.4,31.8c-2.7,11.7-6.7,23.1-12,33.9c-17.7,36.1-13.1,62.9-9,86.6c4.8,27.7,8.9,51.5-23.5,93
		c-23.2,29.8-62.5,59.6-117.7,32.5c-7.2-3.6-13.5-7.5-19-11.8c7.1,7.2,16.2,13.8,27.7,19.5c55.1,27.1,94.4-2.7,117.7-32.5
		C1746.2,745.5,1742.1,721.7,1737.4,694z"/>
</g>
<g>
	<path fill-rule="evenodd" clip-rule="evenodd" fill="#E7BC73" d="M216.2,736.6c-9-18.2,12.2-23.8,21.2-4.7
		c16.9,35.6,153.5,5.1,153.5-34.1c0-20.9,20.1-25.2,21.2-4.7l-3.3,95.3c-0.2,5.8-2.7,15-10.5,16.7l-120.8,26.8
		c-7.4,1.6-14.7-3.8-17.3-8.8L216.2,736.6z"/>
	<path fill-rule="evenodd" clip-rule="evenodd" fill="#D6AA67" d="M237.5,731.9c-7.1-18.8,14.7-22.9,21.8-4.9
		c12.8,32.1,111.9,10,109.8-24.4c-1.3-21.1,21.3-23.9,21.8-4.9l1.8,94.2c0.1,5.8-1.5,14.7-7.5,16l-94.6,21
		c-5.8,1.3-11.9-4.4-14.1-9.5L237.5,731.9z"/>
	<path fill-rule="evenodd" clip-rule="evenodd" fill="#E7BC73" d="M259.3,727c-5.8-19.6,15.2-23.3,21.8-4.9
		c10.9,30.3,69.8,17,66.1-14.7c-2.2-19.6,20.7-25.3,21.8-4.9l7,93c0.4,5.7-0.2,14.4-4.5,15.4l-67.7,15c-4.1,0.9-8.9-5.1-10.8-10.2
		L259.3,727z"/>
	<path fill-rule="evenodd" clip-rule="evenodd" fill="#D6AA67" d="M281.1,722.2c-5.6-18.9,16.4-25,21.9-4.6
		c5.3,19.5,25.5,13.2,22.4-5.3c-3.3-19.7,19-24.6,21.8-4.9l12.2,91.9c0.7,5.6,1.1,14.1-1.5,14.7l-40.8,9.1c-2.5,0.6-6-5.8-7.6-10.9
		L281.1,722.2z"/>
	<path fill-rule="evenodd" clip-rule="evenodd" fill="#E7BC73" d="M303,717.3c-5.8-19.4,18.2-27.3,22.5-5l17.4,90.7
		c1.1,5.5,2.4,13.8,1.5,14l-13.8,3.1c-0.8,0.2-3-6.4-4.3-11.6L303,717.3z"/>
	<path fill-rule="evenodd" clip-rule="evenodd" fill="#BA7051" d="M279.6,559.2c71.3-15.8,138.7,14.4,150.5,67.6
		c5.3,23.7-1.4,47.9-16.7,68.9c-19,26.1-14.2-2.1-48.7,18.5c-22.3,13.4-67.6,13.5-94.4,13.6c-36.4,0.2-39,19.8-53.6,11.8
		c-23-12.5-39.5-31.8-44.8-55.6C160.1,631,208.3,575,279.6,559.2z"/>
	<path fill-rule="evenodd" clip-rule="evenodd" fill="#432521" d="M303.4,714.8c49.2-8.9,98.6-26.2,123.6-43.2
		c2.6-1.9,6.3-1.3,8.1,1.3c1.9,2.6,1.3,6.3-1.3,8.1c-25.6,17.4-76.5,35.9-127.9,45.2L303.4,714.8L303.4,714.8z M298.2,691.5
		l-2.5-11.1c57.4-15.1,114.3-41.7,131.1-62.7c2.4-2.2,6.1-2,8.2,0.4c2.2,2.4,2,6.1-0.4,8.2C414,648.7,356.5,676,298.2,691.5
		L298.2,691.5z M291,659.1c55.6-7.8,110.5-27.9,133.7-46.5c2.6-1.9,3.2-5.5,1.3-8.1c-1.9-2.6-5.5-3.2-8.1-1.3
		c-6.8,4.6-6.8,3.8-11.8,7.5c-20.5,15-68.7,31.4-117.3,38.2L291,659.1L291,659.1z M283.3,624.4l-2.8-12.7
		c39.1-9.9,75.5-26.5,78.5-45.1c0.1-3.2,2.8-5.8,6-5.7c3.2,0.1,5.8,2.8,5.7,6C366.6,593.1,326.6,613.4,283.3,624.4z M183.6,709.1
		c24.5,15.2,72,14.4,119.8,5.8l2.5,11.5c-50.4,9.1-101.4,9.5-130-8.4c-2.4-2.1-2.7-5.8-0.5-8.2C177.5,707.2,181.2,706.9,183.6,709.1
		L183.6,709.1z M280.5,611.7l2.8,12.7c-36.1,9.1-74.5,11.7-96.3,5.7c-3-1.1-4.5-4.5-3.4-7.5c1.1-3,4.5-4.5,7.5-3.4
		C208.9,624.1,245.8,620.5,280.5,611.7L280.5,611.7z M288.7,648.9c-40.5,5.7-81.3,4.8-106.6-9.1c-2.4-2.1-6.1-1.9-8.2,0.5
		c-2.1,2.4-1.9,6.1,0.5,8.2c29.5,15.3,73.2,16.6,116.6,10.5L288.7,648.9L288.7,648.9z M295.7,680.4c-45.6,12-91.5,16.7-118.1,5.6
		c-2.5-2-6.2-1.5-8.2,1c-2,2.5-1.5,6.2,1,8.2c28.8,13.9,78.6,9.3,127.8-3.7L295.7,680.4z"/>
	<path fill-rule="evenodd" clip-rule="evenodd" fill="#643832" d="M301.9,707.9c49.2-8.9,98.6-26.2,123.6-43.2
		c2.6-1.9,6.3-1.3,8.1,1.3c1.9,2.6,1.3,6.3-1.3,8.1c-25.6,17.4-76.5,35.9-127.9,45.2L301.9,707.9L301.9,707.9z M296.7,684.6
		l-2.5-11.1c57.4-15.1,114.3-41.7,131.1-62.7c2.4-2.2,6.1-2,8.2,0.4c2.2,2.4,2,6.1-0.4,8.2C412.5,641.8,355,669.1,296.7,684.6
		L296.7,684.6z M289.5,652.2c55.6-7.8,110.5-27.9,133.7-46.5c2.6-1.9,3.2-5.5,1.3-8.1c-1.9-2.6-5.5-3.2-8.1-1.3
		c-6.8,4.6-6.8,3.8-11.8,7.5c-20.5,15-68.7,31.4-117.3,38.2L289.5,652.2L289.5,652.2z M281.8,617.5l-2.8-12.7
		c39.1-9.9,75.5-26.5,78.5-45.1c0.1-3.2,2.8-5.8,6-5.7c3.2,0.1,5.8,2.8,5.7,6C365.1,586.2,325.1,606.5,281.8,617.5z M182.1,702.2
		c24.5,15.2,72,14.4,119.8,5.8l2.5,11.5c-50.4,9.1-101.4,9.5-130-8.4c-2.4-2.1-2.7-5.8-0.5-8.2C175.9,700.3,179.6,700,182.1,702.2
		L182.1,702.2z M279,604.8l2.8,12.7c-36.1,9.1-74.5,11.7-96.3,5.7c-3-1.1-4.5-4.5-3.4-7.5c1.1-3,4.5-4.5,7.5-3.4
		C207.4,617.2,244.3,613.6,279,604.8L279,604.8z M287.2,642c-40.5,5.7-81.3,4.8-106.6-9.1c-2.4-2.1-6.1-1.9-8.2,0.5
		c-2.1,2.4-1.9,6.1,0.5,8.2c29.5,15.3,73.2,16.6,116.6,10.5L287.2,642L287.2,642z M294.2,673.5c-45.6,12-91.5,16.7-118.1,5.6
		c-2.5-2-6.2-1.5-8.2,1c-2,2.5-1.5,6.2,1,8.2c28.8,13.9,78.6,9.3,127.8-3.7L294.2,673.5z"/>
	<g>
		<path fill-rule="evenodd" clip-rule="evenodd" fill="#643832" d="M283.6,593c20.7-4.6,33.9-24.9,29.4-45.2
			c-4.5-20.3-25-33.1-45.7-28.5c-20.7,4.6-33.9,24.9-29.4,45.2C242.4,584.8,262.9,597.6,283.6,593z"/>
		<path fill-rule="evenodd" clip-rule="evenodd" fill="#9C7873" d="M264.4,555.6c7.3-1.6,12-8.8,10.4-15.9
			c-1.6-7.2-8.8-11.7-16.1-10.1c-7.3,1.6-12,8.8-10.4,15.9S257.1,557.3,264.4,555.6z"/>
	</g>
</g>
<g>
	<path fill="#3A3341" d="M830.8,539.5c-41.7-17.8-61.4-112.2-62.7-153c-0.9-27.6,11.2-64.3,23-88.8c8.9-18.3,24.7-39.7,31.6-40.8
		c43.5-7,75.5-39.5,117.8-44c28.7-3,57.8-5.6,86.3-0.9c91.4,15.1,161.8,108.9,169.4,207.8c2.6,33.5-26.8,92.5-50.7,114.2
		c-12.6,11.4-4.7-4.6-20.7-0.3C1024.2,560.3,920.7,594.8,830.8,539.5"/>
</g>
<path fill-rule="evenodd" clip-rule="evenodd" fill="#F2CAA6" d="M1158.7,477.4c0-16.1,1-66.1,1-82.2c-7.5-68.1-58-60.5-88.6-105.6
	c-0.8,0-1.7,0-2.5,0c0,0.6,0,1.1,0,1.7c-1.6,2.4-5.6-0.9-10,0c-5.7,1.1-12.3,9.7-19.2,15c-6.9,5.3-14.1,9.6-19.2,14.2
	c-12.7,11.4-23.1,26.6-36.7,34.2c-9.8,5.5-21.3-47.4-34.9-41.1c-13.7,6.3-30.6-8.8-41-5.7c-23.2,7-63,73.1-82.7,82.1
	c-9.5,4.4-11.2,21.5-8.3,34.8c-0.7,37.1,3.6,70.1,7.5,104.3c1.2,10.4,1.8,22.7,5,31.7c4.4,12.5,17.1,30.4,26,38.3
	c23.1,20.6,34.5,27.9,59,45.7c11.1,8.1,31.1,16.6,42.7,21.2c19.4,7.7,45.4,6.9,64.3-1.7c5.2-2.4,10.8-7.4,16.7-10.8
	c27.4-16.1,50.3-30,74.6-51c10-8.6,22.9-25.6,28.9-35C1155.5,545.3,1156.2,510.6,1158.7,477.4z"/>
<path fill="#B23359" d="M1002,580.1c-24.2,3.2-59.4,1.2-70.3-6.8c0,0-0.1,6.8,5.8,17c8.2,14,24.3,23.1,45.8,22.3
	c33.1-1.3,36.6-4.2,45.6-20.1c1.6-2.8,3.8-13.9,7.2-19.1C1036.1,573.3,1025.8,576.9,1002,580.1"/>
<path fill="#F27566" d="M930.3,575.8c4.8,18.7,7.7,25.8,17.3,37.5c15.9,19.4,50.3,19.7,71.2-0.5c4.6-4.4,16.8-33.2,19.2-40.9
	c0,0-6.6,8.5-8.5,11.8c-5.1,9.1-20.5,26.5-54.3,21.9c-28.2-3.8-39.9-21.1-42.3-26.5C930.6,573.8,930.3,575.8,930.3,575.8"/>
<g opacity="0.58">
	<g>
		
			<rect x="961.1" y="604.4" transform="matrix(0.995 9.983063e-02 -9.983063e-02 0.995 65.8054 -93.4535)" fill="none" width="11.1" height="12.7"/>
	</g>
</g>
<g opacity="0.43">
	<g>
		
			<rect x="973.7" y="609.5" transform="matrix(0.995 0.1002 -0.1002 0.995 66.5552 -94.8986)" fill="none" width="8.2" height="11"/>
	</g>
</g>
<path fill="#FFFFFF" d="M948,588.4c15.3,12.5,51.2,14.7,70.6,0.1c1.4-1.1,2.6-5.9,7.7-10.8l-84.7-1.6L948,588.4z"/>
<path fill="#F27566" d="M1006.2,571.7c19.6,3.6,24.3,5.6,29.7-2.4c0,0-7.7,15-30.9,17.1c-26.1,2.4-65.2,5.3-79.5-17.6
	c0,0,1.4,7.2,17.3,4.8C971.5,569.1,993.3,569.3,1006.2,571.7"/>
<path fill="#B23359" d="M1033.4,571.7c0,0-5.3,9.5-20.5,12.4c-15.2,2.9-30,1.6-37.7,1.8c-7.6,0.2-35.2-1.5-43.2-11.3
	c0,0-3.3-4.1-6-5.1c-3.8-1.4-5.5,0-2.3,2c1.1,0.7,3.1-0.7,6.4,4.2c5.1,7.4,23.2,10.7,34.6,11.6c16.3,1.4,41.3,0.6,50.9-1.7
	c6.5-1.6,12.2-2.3,19.7-10c0.8-0.8-0.4,0,2.3-1.5c5.3-3,5.6-8.6,0.2-6.8"/>
<g>
	<path fill="#EAA8B7" d="M982.8,610.2c-5.5,0-10.9-0.5-16.1-1.9c-4.6-1.4-10.9-6.8-15.6-6.8c-3,0-4.6,2.7-3.3,6
		c1.4,3.6,7.1,4.6,10.1,6c5.7,2.7,15.6,8.2,21.9,5.2c2.2-1.1,8.7-6.8,4.4-8.7"/>
</g>
<path fill-rule="evenodd" clip-rule="evenodd" fill="#DFAF86" d="M960.8,537.9c-7.4-4.7,8.5,19.8,25,19.8c18.8,0,32.8-24.6,25-20.5
	C989.7,548.5,968.5,542.9,960.8,537.9z"/>
<path fill="#FFFFFF" d="M1115.9,475.3c0,0-49.5-57-78-9c-2.5,4.2-6.1,16.3-8.2,22.1C1026,498.7,1090.1,525.4,1115.9,475.3z"/>
<circle fill="#53826C" cx="1068.5" cy="476.2" r="29.4"/>
<path d="M1063.9,451.4c-8.7,1.2-15.8,8.3-16.8,17.4c-1.2,10.9,6.7,20.6,17.5,21.8c10.9,1.2,20.6-6.7,21.8-17.5
	c1.2-10.9-6.7-20.6-17.5-21.8C1067.1,451.2,1065.5,451.2,1063.9,451.4z"/>
<circle fill="#FFFFFF" cx="1050.7" cy="478.7" r="6.8"/>
<path fill="#232020" d="M1114.2,477.2c3.4-2.2-47-67.9-84.9,11.2c-1.4,3,1.6-48.6,46.4-50.9c16.3-0.8,31.4,5,42,22.9
	c12.8,21.6,10.5,18.9,10.5,18.9l-19.8,8.8L1114.2,477.2z"/>
<path fill="#FFFFFF" d="M856.1,472.5c0,0,48.5-56.2,76.7-9.1c2.5,4.1,6,16.1,8.1,21.7C944.6,495.1,881.7,521.6,856.1,472.5z"/>
<circle fill="#53826C" cx="902.8" cy="473.1" r="28.9"/>
<path d="M907.2,448.8c8.6,1.2,15.6,8.1,16.6,17.1c1.2,10.7-6.5,20.3-17.1,21.5c-10.7,1.2-20.3-6.5-21.5-17.1
	c-1.2-10.7,6.5-20.3,17.1-21.5C904,448.5,905.6,448.6,907.2,448.8z"/>
<circle fill="#FFFFFF" cx="884.8" cy="470.3" r="6.6"/>
<path fill="#232020" d="M857.8,474.3c-3.3-2.2,46-66.9,83.6,10.7c1.4,2.9-1.8-47.8-45.8-49.9c-16-0.8-30.8,5-41.2,22.6
	c-12.5,21.3-10.3,18.7-10.3,18.7l19.5,8.6L857.8,474.3z"/>
<path fill="#3A3341" d="M797.3,365.1c1.2-1.7-45.8-99.8,40.9-159.2c-1.6-1.8,54.4-24.7,82.5-29.5c86-14.6,149.9,7.3,188.9,45.2
	c44.5,27.5,78.7,117.8,77.3,118.9c-1.7,1.3-9.6-11.6-23.5-30.7c-3-4.1-6.4-8.6-10.1-13.1c20.9,43.8,26.4,82.4,26.4,82.4l-114.7,5.7
	l-17.4-90.8l-1.8,75.9L909,379.4l-1.3-87.7c0,0,8.8-24.3-0.1,23.8c-1,5.4-14,67.4-28.1,72.9c-31.4,12.3-69.5,24.7-72.3,22.7
	c-2.8-2,0.9-7-1.1-9.2c-4-4.4,12.7-6.7,9.6-10.4C803.2,376.8,796.1,366.9,797.3,365.1z"/>
<g>
	<path fill="#42324A" d="M851.5,416.9c-1.2-2.9,18.8-13.3,45.9-16.1c27.2-3,48.9,2.9,48.3,5.9c-0.4,3.3-21.6,2.9-47.1,5.8
		C873.2,415.2,852.7,420.1,851.5,416.9z"/>
</g>
<g>
	<path fill="#42324A" d="M1028.6,405.6c-0.6-3.1,21.1-9.1,48.3-6.3c27.2,2.7,47.2,12.9,46,15.8c-1.1,3.2-21.7-1.6-47.2-4.1
		C1050.2,408.3,1029.1,408.9,1028.6,405.6z"/>
</g>
<g>
	<path fill="#BE434A" d="M776.6,334.2c2.8-44.7,36-83.2,75.7-103.8c39.7-20.7,85.4-26.5,130-30c35.3-2.8,72.4-4,104.4,11.3
		c43.1,20.7,67.5,66.7,85,111.2c-25.4-8.5-45.3-28.2-68-42.4c-48.8-30.5-110.2-35-166.8-24.5C880.4,266.5,828.9,310.2,776.6,334.2"
		/>
</g>
<g>
	<path fill="#BE434A" d="M836.7,1057.7c8.1,30.3,9.4,72.4,7.1,98.8l-3.3,20.5c-2.4,11.5-3.2,20.2-4.3,26.3
		c-7.5,40.2-22.4,86.1-32.3,120.6h382.1c-12.3-37.6-29.9-85.7-38.7-126.3c-3.2-14.6-3.4-28.5-3.2-31.6c3-38.7,3.6-115.1,9.4-121.4
		c3.6-4.2,7.9-8.9,13-14.7c24.3-27.8,41-83.7,7.1-142.8c-20.8-36.3-34.1-143.8-33-176.2l-14,1c0,0,14.7,103.3-75.4,161.4
		c-15.5,10-40,15-64.7,15.1c-24.6-0.1-49.2-5.1-64.7-15.1c-90.1-58.2-76.3-148.4-76.3-148.4l-18-1c1.1,32.4,8.3,118-12.6,154.4
		c-33.9,59.1-26.6,126.1-2.3,153.9C823.3,1044.2,830.9,1050.7,836.7,1057.7z"/>
</g>
</svg>
